<svg width="83" height="78" viewBox="0 0 83 78" fill="none" xmlns="http://www.w3.org/2000/svg">
<g filter="url(#filter0_d_0_91)">
<path fill-rule="evenodd" clip-rule="evenodd" d="M3.99609 1.99998L4.00435 0C5.02272 0.00420616 6.03014 0.0189311 7.02688 0.0443559L6.97588 2.04371C5.99352 2.01865 5.00034 2.00413 3.99609 1.99998ZM70.1881 56.0769C70.1461 55.725 70.1026 55.375 70.0574 55.0268L72.0408 54.7696C72.0924 55.1673 72.1419 55.5674 72.1894 55.9699L78.2426 55.6461L72.0002 70L64.2626 56.3938L70.1881 56.0769ZM10.0471 0.155913L9.94989 2.15355C10.952 2.20233 11.9423 2.26278 12.9209 2.33508L13.0683 0.340511C12.0728 0.266969 11.0658 0.205504 10.0471 0.155913ZM15.8827 2.59384L16.0842 0.604022C17.1005 0.706934 18.1041 0.823256 19.0951 0.953213L18.8351 2.93624C17.8637 2.80886 16.8796 2.6948 15.8827 2.59384ZM22.1102 1.3972L21.7867 3.37087C22.7725 3.53244 23.7444 3.7087 24.7024 3.89987L25.0938 1.93854C24.113 1.74283 23.1185 1.56246 22.1102 1.3972ZM27.5909 4.53173L28.0551 2.58635C29.0518 2.82417 30.0332 3.07903 30.9994 3.3512L30.4571 5.27628C29.5171 5.01147 28.5617 4.76337 27.5909 4.53173ZM33.9284 4.24495L33.3025 6.1445C34.2474 6.45581 35.1754 6.7854 36.0866 7.13353L36.8004 5.26525C35.8599 4.90592 34.9025 4.56592 33.9284 4.24495ZM38.8134 8.25303L39.6193 6.42259C40.5579 6.83584 41.4781 7.27006 42.3799 7.72555L41.4782 9.51075C40.6081 9.07129 39.7198 8.65214 38.8134 8.25303ZM45.0656 9.17679L44.0657 10.9089C44.9197 11.4019 45.7544 11.9165 46.5695 12.4529L47.669 10.7822C46.8211 10.2242 45.9532 9.68919 45.0656 9.17679ZM48.995 14.1569L50.1944 12.5565C51.0124 13.1695 51.8097 13.8064 52.586 14.4672L51.2896 15.9901C50.5449 15.3562 49.78 14.7452 48.995 14.1569ZM54.8777 16.5469L53.4872 17.9844C54.1893 18.6636 54.8712 19.3658 55.5327 20.0914L57.0107 18.744C56.321 17.9874 55.6099 17.2551 54.8777 16.5469ZM57.4456 22.3261L59.0045 21.0732C59.6401 21.864 60.2548 22.6784 60.8486 23.5166L59.2165 24.6727C58.6462 23.8674 58.0558 23.0853 57.4456 22.3261ZM62.5365 26.0545L60.8398 27.1133C61.3545 27.938 61.8503 28.7847 62.327 29.6535L64.0804 28.6914C63.5857 27.7899 63.0711 26.911 62.5365 26.0545ZM63.6742 32.2733L65.4763 31.4058C65.9126 32.3121 66.3303 33.2392 66.7295 34.1873L64.8861 34.9633C64.5 34.046 64.0959 33.1493 63.6742 32.2733ZM67.8519 37.0431L65.9739 37.7309C66.3084 38.6443 66.6267 39.5767 66.9284 40.5282L68.8349 39.9236C68.5243 38.9443 68.1966 37.9842 67.8519 37.0431ZM67.7636 43.3641L69.6932 42.8379C69.9562 43.8024 70.2038 44.7842 70.4358 45.7835L68.4876 46.2358C68.2613 45.2612 68.0199 44.3039 67.7636 43.3641ZM71.0728 48.7707L69.1098 49.1534C69.2965 50.1114 69.4696 51.0851 69.629 52.0748L71.6035 51.7568C71.4407 50.7456 71.2638 49.7503 71.0728 48.7707Z" fill="#F698AD"/>
</g>
<defs>
<filter id="filter0_d_0_91" x="-0.00390625" y="0" width="82.2461" height="78" filterUnits="userSpaceOnUse" color-interpolation-filters="sRGB">
<feFlood flood-opacity="0" result="BackgroundImageFix"/>
<feColorMatrix in="SourceAlpha" type="matrix" values="0 0 0 0 0 0 0 0 0 0 0 0 0 0 0 0 0 0 127 0" result="hardAlpha"/>
<feOffset dy="4"/>
<feGaussianBlur stdDeviation="2"/>
<feComposite in2="hardAlpha" operator="out"/>
<feColorMatrix type="matrix" values="0 0 0 0 0 0 0 0 0 0 0 0 0 0 0 0 0 0 0.25 0"/>
<feBlend mode="normal" in2="BackgroundImageFix" result="effect1_dropShadow_0_91"/>
<feBlend mode="normal" in="SourceGraphic" in2="effect1_dropShadow_0_91" result="shape"/>
</filter>
</defs>
</svg>
