<svg width="237" height="379" viewBox="0 0 237 379" fill="none" xmlns="http://www.w3.org/2000/svg">
<g filter="url(#filter0_d_955_2)">
<path fill-rule="evenodd" clip-rule="evenodd" d="M157.996 1.99998L158.004 0C159.023 0.00420616 160.03 0.0189311 161.027 0.0443559L160.976 2.04371C159.994 2.01865 159 2.00413 157.996 1.99998ZM224.188 56.0769C224.146 55.725 224.103 55.375 224.057 55.0268L226.041 54.7696C226.092 55.1673 226.142 55.5674 226.189 55.9699L232.243 55.6461L226 70L218.263 56.3938L224.188 56.0769ZM164.047 0.155913L163.95 2.15355C164.952 2.20233 165.942 2.26278 166.921 2.33508L167.068 0.340511C166.073 0.266969 165.066 0.205504 164.047 0.155913ZM169.883 2.59384L170.084 0.604022C171.1 0.706934 172.104 0.823256 173.095 0.953213L172.835 2.93624C171.864 2.80886 170.88 2.6948 169.883 2.59384ZM176.11 1.3972L175.787 3.37087C176.773 3.53244 177.744 3.7087 178.702 3.89987L179.094 1.93854C178.113 1.74283 177.119 1.56246 176.11 1.3972ZM181.591 4.53173L182.055 2.58635C183.052 2.82417 184.033 3.07903 184.999 3.3512L184.457 5.27628C183.517 5.01147 182.562 4.76337 181.591 4.53173ZM187.928 4.24495L187.303 6.1445C188.247 6.45581 189.175 6.7854 190.087 7.13353L190.8 5.26525C189.86 4.90592 188.903 4.56592 187.928 4.24495ZM192.813 8.25303L193.619 6.42259C194.558 6.83584 195.478 7.27006 196.38 7.72555L195.478 9.51075C194.608 9.07129 193.72 8.65214 192.813 8.25303ZM199.066 9.17679L198.066 10.9089C198.92 11.4019 199.754 11.9165 200.57 12.4529L201.669 10.7822C200.821 10.2242 199.953 9.68919 199.066 9.17679ZM202.995 14.1569L204.194 12.5565C205.012 13.1695 205.81 13.8064 206.586 14.4672L205.29 15.9901C204.545 15.3562 203.78 14.7452 202.995 14.1569ZM208.878 16.5469L207.487 17.9844C208.189 18.6636 208.871 19.3658 209.533 20.0914L211.011 18.744C210.321 17.9874 209.61 17.2551 208.878 16.5469ZM211.446 22.3261L213.005 21.0732C213.64 21.864 214.255 22.6784 214.849 23.5166L213.217 24.6727C212.646 23.8674 212.056 23.0853 211.446 22.3261ZM216.537 26.0545L214.84 27.1133C215.354 27.938 215.85 28.7847 216.327 29.6535L218.08 28.6914C217.586 27.7899 217.071 26.911 216.537 26.0545ZM217.674 32.2733L219.476 31.4058C219.913 32.3121 220.33 33.2392 220.729 34.1873L218.886 34.9633C218.5 34.046 218.096 33.1493 217.674 32.2733ZM221.852 37.0431L219.974 37.7309C220.308 38.6443 220.627 39.5767 220.928 40.5282L222.835 39.9236C222.524 38.9443 222.197 37.9842 221.852 37.0431ZM221.764 43.3641L223.693 42.8379C223.956 43.8024 224.204 44.7842 224.436 45.7835L222.488 46.2358C222.261 45.2612 222.02 44.3039 221.764 43.3641ZM225.073 48.7707L223.11 49.1534C223.297 50.1114 223.47 51.0851 223.629 52.0748L225.604 51.7568C225.441 50.7456 225.264 49.7503 225.073 48.7707Z" fill="#F698AD"/>
</g>
<g filter="url(#filter1_d_955_2)">
<path d="M10.0001 232L4.31994 221.947L15.8664 222.054L10.0001 232ZM78.0041 164C77.5181 164.002 77.0327 164.006 76.548 164.013L76.5193 162.014C77.0109 162.007 77.5031 162.002 77.9959 162L78.0041 164ZM73.6425 164.086C72.6717 164.121 71.7045 164.167 70.7415 164.224L70.6227 162.228C71.6018 162.17 72.5846 162.123 73.5705 162.087L73.6425 164.086ZM67.8471 164.433C66.88 164.515 65.9179 164.61 64.9615 164.717L64.7377 162.73C65.7128 162.62 66.6931 162.524 67.6777 162.44L67.8471 164.433ZM62.0858 165.084C61.1253 165.221 60.1714 165.372 59.2247 165.539L58.8788 163.569C59.8473 163.399 60.8223 163.244 61.8032 163.104L62.0858 165.084ZM56.3832 166.088C55.4357 166.288 54.4965 166.505 53.5662 166.738L53.0796 164.798C54.0349 164.559 54.9984 164.336 55.9694 164.131L56.3832 166.088ZM50.7795 167.496C49.8527 167.769 48.936 168.059 48.0299 168.369L47.3835 166.476C48.3176 166.157 49.2619 165.858 50.2154 165.577L50.7795 167.496ZM45.3251 169.362C44.4293 169.715 43.5453 170.088 42.6739 170.482L41.8499 168.66C42.7522 168.252 43.6665 167.866 44.592 167.501L45.3251 169.362ZM40.0856 171.734C39.2336 172.174 38.3951 172.636 37.5707 173.121L36.5566 171.397C37.4133 170.893 38.2839 170.413 39.1677 169.957L40.0856 171.734ZM35.1399 174.646C34.3461 175.176 33.5672 175.73 32.8038 176.309L31.5959 174.715C32.3913 174.112 33.2025 173.535 34.0286 172.983L35.1399 174.646ZM30.5727 178.108C29.8512 178.727 29.1454 179.371 28.4561 180.04L27.0632 178.604C27.7821 177.907 28.5182 177.235 29.2705 176.59L30.5727 178.108ZM26.4619 182.098C25.8235 182.798 25.2013 183.524 24.596 184.275L23.0387 183.02C23.6695 182.237 24.318 181.481 24.9836 180.751L26.4619 182.098ZM22.8623 186.562C22.3128 187.333 21.7794 188.129 21.2627 188.95L19.57 187.885C20.1069 187.032 20.6616 186.204 21.2335 185.401L22.8623 186.562ZM19.8024 191.42C19.3445 192.244 18.9022 193.092 18.4759 193.964L16.6791 193.086C17.1204 192.183 17.5788 191.304 18.0538 190.449L19.8024 191.42ZM17.2783 196.577C16.9053 197.446 16.5472 198.337 16.2044 199.251L14.3319 198.548C14.6854 197.606 15.055 196.686 15.4404 195.788L17.2783 196.577ZM15.2482 201.98C14.9542 202.881 14.6742 203.802 14.4086 204.744L12.4837 204.201C12.7565 203.234 13.0443 202.287 13.3469 201.36L15.2482 201.98ZM13.6804 207.528C13.4573 208.451 13.2473 209.392 13.0507 210.352L11.0913 209.951C11.2926 208.968 11.5077 208.004 11.7364 207.058L13.6804 207.528ZM12.5136 213.217C12.3548 214.147 12.2079 215.095 12.0732 216.059L10.0924 215.782C10.2298 214.798 10.3798 213.831 10.5421 212.88L12.5136 213.217ZM11.7134 218.936C11.6078 219.888 11.5136 220.857 11.4309 221.841L9.43795 221.674C9.52205 220.672 9.618 219.686 9.72558 218.715L11.7134 218.936ZM11.2255 224.715C11.1687 225.672 11.1224 226.644 11.0868 227.63L9.0881 227.558C9.12425 226.556 9.17128 225.569 9.22902 224.596L11.2255 224.715Z" fill="#F698AD"/>
</g>
<g filter="url(#filter2_d_955_2)">
<path d="M226 371L231.68 360.947L220.134 361.054L226 371ZM157.996 303C158.482 303.002 158.967 303.006 159.452 303.013L159.481 301.014C158.989 301.007 158.497 301.002 158.004 301L157.996 303ZM162.358 303.086C163.328 303.121 164.296 303.167 165.258 303.224L165.377 301.228C164.398 301.17 163.415 301.123 162.43 301.087L162.358 303.086ZM168.153 303.433C169.12 303.515 170.082 303.61 171.038 303.717L171.262 301.73C170.287 301.62 169.307 301.524 168.322 301.44L168.153 303.433ZM173.914 304.084C174.875 304.221 175.829 304.372 176.775 304.539L177.121 302.569C176.153 302.399 175.178 302.244 174.197 302.104L173.914 304.084ZM179.617 305.088C180.564 305.288 181.504 305.505 182.434 305.738L182.92 303.798C181.965 303.559 181.002 303.336 180.031 303.131L179.617 305.088ZM185.22 306.496C186.147 306.769 187.064 307.059 187.97 307.369L188.616 305.476C187.682 305.157 186.738 304.858 185.785 304.577L185.22 306.496ZM190.675 308.362C191.571 308.715 192.455 309.088 193.326 309.482L194.15 307.66C193.248 307.252 192.334 306.866 191.408 306.501L190.675 308.362ZM195.914 310.734C196.766 311.174 197.605 311.636 198.429 312.121L199.443 310.397C198.587 309.893 197.716 309.413 196.832 308.957L195.914 310.734ZM200.86 313.646C201.654 314.176 202.433 314.73 203.196 315.309L204.404 313.715C203.609 313.112 202.798 312.535 201.971 311.983L200.86 313.646ZM205.427 317.108C206.149 317.727 206.855 318.371 207.544 319.04L208.937 317.604C208.218 316.907 207.482 316.235 206.73 315.59L205.427 317.108ZM209.538 321.098C210.176 321.798 210.799 322.524 211.404 323.275L212.961 322.02C212.331 321.237 211.682 320.481 211.016 319.751L209.538 321.098ZM213.138 325.562C213.687 326.333 214.221 327.129 214.737 327.95L216.43 326.885C215.893 326.032 215.338 325.204 214.767 324.401L213.138 325.562ZM216.198 330.42C216.655 331.244 217.098 332.092 217.524 332.964L219.321 332.086C218.88 331.183 218.421 330.304 217.946 329.449L216.198 330.42ZM218.722 335.577C219.095 336.446 219.453 337.337 219.796 338.251L221.668 337.548C221.315 336.606 220.945 335.686 220.56 334.788L218.722 335.577ZM220.752 340.98C221.046 341.881 221.326 342.802 221.591 343.744L223.516 343.201C223.244 342.234 222.956 341.287 222.653 340.36L220.752 340.98ZM222.32 346.528C222.543 347.451 222.753 348.392 222.949 349.352L224.909 348.951C224.707 347.968 224.492 347.004 224.264 346.058L222.32 346.528ZM223.486 352.217C223.645 353.147 223.792 354.095 223.927 355.059L225.908 354.782C225.77 353.798 225.62 352.831 225.458 351.88L223.486 352.217ZM224.287 357.936C224.392 358.888 224.486 359.857 224.569 360.841L226.562 360.674C226.478 359.672 226.382 358.686 226.274 357.715L224.287 357.936ZM224.774 363.715C224.831 364.672 224.878 365.644 224.913 366.63L226.912 366.558C226.876 365.556 226.829 364.569 226.771 363.596L224.774 363.715Z" fill="#F698AD"/>
</g>
<defs>
<filter id="filter0_d_955_2" x="153.996" y="0" width="82.2461" height="78" filterUnits="userSpaceOnUse" color-interpolation-filters="sRGB">
<feFlood flood-opacity="0" result="BackgroundImageFix"/>
<feColorMatrix in="SourceAlpha" type="matrix" values="0 0 0 0 0 0 0 0 0 0 0 0 0 0 0 0 0 0 127 0" result="hardAlpha"/>
<feOffset dy="4"/>
<feGaussianBlur stdDeviation="2"/>
<feComposite in2="hardAlpha" operator="out"/>
<feColorMatrix type="matrix" values="0 0 0 0 0 0 0 0 0 0 0 0 0 0 0 0 0 0 0.25 0"/>
<feBlend mode="normal" in2="BackgroundImageFix" result="effect1_dropShadow_955_2"/>
<feBlend mode="normal" in="SourceGraphic" in2="effect1_dropShadow_955_2" result="shape"/>
</filter>
<filter id="filter1_d_955_2" x="0.320312" y="162" width="81.6836" height="78" filterUnits="userSpaceOnUse" color-interpolation-filters="sRGB">
<feFlood flood-opacity="0" result="BackgroundImageFix"/>
<feColorMatrix in="SourceAlpha" type="matrix" values="0 0 0 0 0 0 0 0 0 0 0 0 0 0 0 0 0 0 127 0" result="hardAlpha"/>
<feOffset dy="4"/>
<feGaussianBlur stdDeviation="2"/>
<feComposite in2="hardAlpha" operator="out"/>
<feColorMatrix type="matrix" values="0 0 0 0 0 0 0 0 0 0 0 0 0 0 0 0 0 0 0.25 0"/>
<feBlend mode="normal" in2="BackgroundImageFix" result="effect1_dropShadow_955_2"/>
<feBlend mode="normal" in="SourceGraphic" in2="effect1_dropShadow_955_2" result="shape"/>
</filter>
<filter id="filter2_d_955_2" x="153.996" y="301" width="81.6836" height="78" filterUnits="userSpaceOnUse" color-interpolation-filters="sRGB">
<feFlood flood-opacity="0" result="BackgroundImageFix"/>
<feColorMatrix in="SourceAlpha" type="matrix" values="0 0 0 0 0 0 0 0 0 0 0 0 0 0 0 0 0 0 127 0" result="hardAlpha"/>
<feOffset dy="4"/>
<feGaussianBlur stdDeviation="2"/>
<feComposite in2="hardAlpha" operator="out"/>
<feColorMatrix type="matrix" values="0 0 0 0 0 0 0 0 0 0 0 0 0 0 0 0 0 0 0.25 0"/>
<feBlend mode="normal" in2="BackgroundImageFix" result="effect1_dropShadow_955_2"/>
<feBlend mode="normal" in="SourceGraphic" in2="effect1_dropShadow_955_2" result="shape"/>
</filter>
</defs>
</svg>
